<svg xmlns="http://www.w3.org/2000/svg" viewBox="0 0 500 500"><g id="freepik--background-simple--inject-61"><path d="M411.56,97.06c-12.75-13.19-30.46-21-51.25-19-36.05,3.54-62.86,34.08-93.29,50.49-19.35,10.44-41.7,13.66-63.43,14-50.7.9-110.84,3.44-129.9,60-10.67,31.69-8.26,68.92,8.2,98.25,25.49,45.45,85.53,60.3,133.88,61.05,104.43,1.63,186.57-67.1,212.14-167.77C436.07,162.05,436,122.34,411.56,97.06Z" style="fill:#8D493A"></path><path d="M411.56,97.06c-12.75-13.19-30.46-21-51.25-19-36.05,3.54-62.86,34.08-93.29,50.49-19.35,10.44-41.7,13.66-63.43,14-50.7.9-110.84,3.44-129.9,60-10.67,31.69-8.26,68.92,8.2,98.25,25.49,45.45,85.53,60.3,133.88,61.05,104.43,1.63,186.57-67.1,212.14-167.77C436.07,162.05,436,122.34,411.56,97.06Z" style="fill:#fff;opacity:0.7000000000000001"></path></g><g id="freepik--Floor--inject-61"><g id="freepik--floor--inject-61"><ellipse cx="250" cy="436.33" rx="129.03" ry="14.51" style="fill:#8D493A"></ellipse><ellipse cx="250" cy="436.33" rx="129.03" ry="14.51" style="fill:#fff;opacity:0.5;isolation:isolate"></ellipse><path d="M438.13,380.76c-1.24-1.8-5.17-1.82-7-1.27-.16.06-2.6,1.1-2.57,1.12l0,0c-.63,0-1.29,0-2,0-1.34,0-2.86.08-4.51.25a46.85,46.85,0,0,0-5.29.79A33.84,33.84,0,0,0,411,383.4l-.06,0c.49-.41,1.83-1.61,1.92-1.7,1.31-1.45,3-5,1.87-6.9a2.58,2.58,0,0,0-3.56-.81,1.88,1.88,0,0,0-.23.16c-1.24.9-1.69,2.75-1.71,4.2,0,1.65,1.37,4.91,1.5,5.15a44.14,44.14,0,0,0-5.44,2.77c-1,.61-2,1.23-3,1.92.42-.36.79-.7.83-.75,1.3-1.45,3-5,1.87-6.9a2.58,2.58,0,0,0-3.55-.82l-.23.16c-1.25.9-1.69,2.76-1.72,4.2s1.12,4.29,1.43,5l-1.17.74c-1.84,1.23-3.66,2.45-5.49,3.61-.64.41-1.29.79-2,1.16.37-.33.67-.6.71-.65,1.31-1.45,3-5,1.89-6.93a2.58,2.58,0,0,0-3.55-.83,2.07,2.07,0,0,0-.24.17c-1.25.91-1.69,2.75-1.72,4.21a16.57,16.57,0,0,0,1.37,4.89c-.67.37-1.35.74-2,1.07-.46.21-.88.43-1.37.64l-1.39.58c-.89.33-1.79.7-2.7,1-.62.22-1.2.41-1.76.62.63-.39,1.88-1.2,2-1.27a10,10,0,0,0,2.83-4.2,3.78,3.78,0,0,0,.41-.39,2.59,2.59,0,0,0-.18-3.66l-.21-.17c-1.83-1.25-5.49.16-7,1.35-.09.07-1,.94-1.55,1.5.28-.37.56-.74.84-1.13.56-.78,1.1-1.57,1.67-2.43.26-.42.54-.85.81-1.27s.52-.9.79-1.35c.59-1.06,1.14-2.16,1.67-3.28.68.49,3.12,2.2,4.56,2.47s3.33.28,4.48-.72a2.58,2.58,0,0,0,.39-3.63l-.19-.21c-1.6-1.5-5.44-.68-7.15.27-.1.06-1.25.87-1.87,1.33.3-.65.63-1.35.93-2.05.83-2,1.64-4.06,2.45-6.11.24-.63.47-1.26.75-1.88.24.18,3.09,2.28,4.7,2.61,1.41.3,3.32.29,4.48-.72a2.58,2.58,0,0,0,.37-3.64l-.18-.2c-1.59-1.49-5.44-.67-7.15.27-.12.07-1.77,1.25-2.18,1.57.55-1.37,1.12-2.74,1.73-4.07a47.12,47.12,0,0,1,2.79-5.19c.13,0,3.08,2.29,4.73,2.63,1.41.3,3.31.29,4.48-.73a2.59,2.59,0,0,0,.37-3.64,1.62,1.62,0,0,0-.18-.2c-1.59-1.49-5.44-.67-7.14.28-.12.06-1.38.95-2,1.39l-.09-.08a32.47,32.47,0,0,1,3.7-4.64c.74-.8,1.49-1.52,2.25-2.21.51.47,2.85,2.59,4.31,3.05s3.27.65,4.54-.23a2.59,2.59,0,0,0,.77-3.58,1.66,1.66,0,0,0-.16-.21c-1.41-1.66-5.34-1.25-7.13-.52-.1,0-1,.57-1.73,1l1-.91c1.26-1.06,2.47-2,3.56-2.77.61-.44,1.18-.83,1.72-1.19.74.19,3.74.95,5.21.71a5.31,5.31,0,0,0,3.92-2.3,2.57,2.57,0,0,0-.95-3.51l-.26-.13c-2-.82-5.31,1.33-6.56,2.82-.11.14-1.57,2.35-1.53,2.36h0c-.52.32-1.08.69-1.68,1.12-1.11.77-2.35,1.65-3.63,2.69a48.21,48.21,0,0,0-4,3.58,33.69,33.69,0,0,0-3.84,4.6l0,.07c.22-.6.65-2.34.67-2.48.29-1.92-.28-5.82-2.24-6.78a2.59,2.59,0,0,0-3.43,1.25c0,.09-.07.18-.1.26-.54,1.44.11,3.23.89,4.46.87,1.39,3.85,3.33,4.09,3.49a46.19,46.19,0,0,0-3,5.31c-.51,1.06-1,2.15-1.49,3.26.15-.54.27-1,.28-1.08.29-1.93-.29-5.82-2.24-6.79a2.59,2.59,0,0,0-3.43,1.25c0,.09-.07.18-.1.26-.54,1.44.11,3.23.89,4.46s3.29,3,4,3.41c-.16.43-.36.84-.54,1.26-.85,2-1.69,4.07-2.57,6-.32.69-.65,1.37-1,2,.13-.47.23-.88.24-.93.29-1.93-.29-5.83-2.24-6.79a2.58,2.58,0,0,0-3.43,1.25c0,.09-.08.17-.11.26-.54,1.45.12,3.23.89,4.46a16,16,0,0,0,3.84,3.32c-.35.69-.71,1.37-1.09,2-.27.44-.5.88-.79,1.3l-.82,1.22c-.57.77-1.14,1.58-1.71,2.32-.39.52-.77,1-1.16,1.51.32-.69.91-2.05,1-2.18.58-1.85.6-5.79-1.18-7a2.58,2.58,0,0,0-3.57.73c-.05.08-.1.16-.14.24-.76,1.34-.39,3.2.2,4.54s3.17,3.76,3.49,4l-1.87,2.35c-2.1,2.54-3.93,4.58-5.23,6,0,.06-.09.09-.14.14l1,1.12c.08-.09.17-.18.25-.28,1.31-1.44,3.1-3.55,5.15-6.17.65-.82,1.33-1.71,2-2.64a28,28,0,0,0,3,1.36,18.72,18.72,0,0,0,.7,5.12c-1,.33-1.94.64-2.85.92-3.14,1-5.79,1.65-7.66,2.11l-.22,0,1.06,1.24c1.84-.49,4.28-1.22,7.21-2.17,1-.33,2.06-.7,3.14-1.11.21.37,1.88,3.36,3.17,4.32s2.89,1.65,4.37,1.22a2.59,2.59,0,0,0,1.86-3.15c0-.08,0-.17-.08-.26-.82-2-4.65-2.89-6.61-2.75-.11,0-1.35.26-2.12.4l1.32-.49c.89-.34,1.79-.69,2.75-1.08l1.37-.61c.47-.2.94-.46,1.4-.69,1.08-.56,2.15-1.17,3.21-1.82.3.79,1.38,3.58,2.41,4.61s2.62,2.06,4.14,1.86a2.58,2.58,0,0,0,2.32-2.83,2,2,0,0,0,0-.26c-.5-2.12-4.16-3.57-6.11-3.72-.12,0-1.54,0-2.31.07.62-.39,1.26-.78,1.89-1.2,1.82-1.21,3.61-2.47,5.42-3.74l1.66-1.15c.1.27,1.33,3.6,2.49,4.75s2.61,2.07,4.14,1.86a2.58,2.58,0,0,0,2.32-2.8,2.5,2.5,0,0,0,0-.29c-.5-2.12-4.16-3.56-6.11-3.71-.14,0-2.17.05-2.68.1,1.22-.84,2.45-1.67,3.69-2.44a43.93,43.93,0,0,1,5.19-2.8c.05.14,1.31,3.61,2.48,4.8s2.62,2.07,4.15,1.88a2.59,2.59,0,0,0,2.31-2.83,2.51,2.51,0,0,0,0-.27c-.5-2.13-4.16-3.56-6.11-3.72-.12,0-1.66.05-2.4.09l0-.13a33.83,33.83,0,0,1,5.65-1.82c1.06-.26,2.09-.44,3.09-.59.17.66,1,3.72,1.91,4.91a5.32,5.32,0,0,0,3.91,2.32,2.58,2.58,0,0,0,2.61-2.56,2.81,2.81,0,0,0,0-.29c-.27-2.17-3.75-4-5.66-4.36-.1,0-1.19-.11-2-.16l1.36-.19c1.64-.2,3.16-.28,4.49-.35l2.1-.05c.51.58,2.59,2.86,4,3.47s3.19,1,4.53.25a2.58,2.58,0,0,0,1.05-3.5Z" style="fill:#8D493A"></path><path d="M420.15,381.12s2.38-1.13,2.53-1.22c1.63-1,4.19-4,3.63-6.16A2.59,2.59,0,0,0,423.1,372l-.26.09a5.42,5.42,0,0,0-2.77,3.61C419.58,377.32,420.15,381.11,420.15,381.12Z" style="fill:#8D493A"></path><path d="M395.57,351.16c.49,1.64,3.05,4.49,3.06,4.49s1.36-2.26,1.43-2.41c.79-1.79,1.26-5.69-.38-7.14a2.58,2.58,0,0,0-3.64.31,1.77,1.77,0,0,0-.16.22C395,347.88,395.18,349.78,395.57,351.16Z" style="fill:#8D493A"></path><g style="opacity:0.5"><path d="M420.15,381.12s2.38-1.13,2.53-1.22c1.63-1,4.19-4,3.63-6.16A2.59,2.59,0,0,0,423.1,372l-.26.09a5.42,5.42,0,0,0-2.77,3.61C419.58,377.32,420.15,381.11,420.15,381.12Z" style="fill:#fff"></path><path d="M438.13,380.76c-1.24-1.8-5.17-1.82-7-1.27-.16.06-2.6,1.1-2.57,1.12l0,0c-.63,0-1.29,0-2,0-1.34,0-2.86.08-4.51.25a46.85,46.85,0,0,0-5.29.79A33.84,33.84,0,0,0,411,383.4l-.06,0c.49-.41,1.83-1.61,1.92-1.7,1.31-1.45,3-5,1.87-6.9a2.58,2.58,0,0,0-3.56-.81,1.88,1.88,0,0,0-.23.16c-1.24.9-1.69,2.75-1.71,4.2,0,1.65,1.37,4.91,1.5,5.15a44.14,44.14,0,0,0-5.44,2.77c-1,.61-2,1.23-3,1.92.42-.36.79-.7.83-.75,1.3-1.45,3-5,1.87-6.9a2.58,2.58,0,0,0-3.55-.82l-.23.16c-1.25.9-1.69,2.76-1.72,4.2s1.12,4.29,1.43,5l-1.17.74c-1.84,1.23-3.66,2.45-5.49,3.61-.64.41-1.29.79-2,1.16.37-.33.67-.6.71-.65,1.31-1.45,3-5,1.89-6.93a2.58,2.58,0,0,0-3.55-.83,2.07,2.07,0,0,0-.24.17c-1.25.91-1.69,2.75-1.72,4.21a16.57,16.57,0,0,0,1.37,4.89c-.67.37-1.35.74-2,1.07-.46.21-.88.43-1.37.64l-1.39.58c-.89.33-1.79.7-2.7,1-.62.22-1.2.41-1.76.62.63-.39,1.88-1.2,2-1.27a10,10,0,0,0,2.83-4.2,3.78,3.78,0,0,0,.41-.39,2.59,2.59,0,0,0-.18-3.66l-.21-.17c-1.83-1.25-5.49.16-7,1.35-.09.07-1,.94-1.55,1.5.28-.37.56-.74.84-1.13.56-.78,1.1-1.57,1.67-2.43.26-.42.54-.85.81-1.27s.52-.9.79-1.35c.59-1.06,1.14-2.16,1.67-3.28.68.49,3.12,2.2,4.56,2.47s3.33.28,4.48-.72a2.58,2.58,0,0,0,.39-3.63l-.19-.21c-1.6-1.5-5.44-.68-7.15.27-.1.06-1.25.87-1.87,1.33.3-.65.63-1.35.93-2.05.83-2,1.64-4.06,2.45-6.11.24-.63.47-1.26.75-1.88.24.18,3.09,2.28,4.7,2.61,1.41.3,3.32.29,4.48-.72a2.58,2.58,0,0,0,.37-3.64l-.18-.2c-1.59-1.49-5.44-.67-7.15.27-.12.07-1.77,1.25-2.18,1.57.55-1.37,1.12-2.74,1.73-4.07a47.12,47.12,0,0,1,2.79-5.19c.13,0,3.08,2.29,4.73,2.63,1.41.3,3.31.29,4.48-.73a2.59,2.59,0,0,0,.37-3.64,1.62,1.62,0,0,0-.18-.2c-1.59-1.49-5.44-.67-7.14.28-.12.06-1.38.95-2,1.39l-.09-.08a32.47,32.47,0,0,1,3.7-4.64c.74-.8,1.49-1.52,2.25-2.21.51.47,2.85,2.59,4.31,3.05s3.27.65,4.54-.23a2.59,2.59,0,0,0,.77-3.58,1.66,1.66,0,0,0-.16-.21c-1.41-1.66-5.34-1.25-7.13-.52-.1,0-1,.57-1.73,1l1-.91c1.26-1.06,2.47-2,3.56-2.77.61-.44,1.18-.83,1.72-1.19.74.19,3.74.95,5.21.71a5.31,5.31,0,0,0,3.92-2.3,2.57,2.57,0,0,0-.95-3.51l-.26-.13c-2-.82-5.31,1.33-6.56,2.82-.11.14-1.57,2.35-1.53,2.36h0c-.52.32-1.08.69-1.68,1.12-1.11.77-2.35,1.65-3.63,2.69a48.21,48.21,0,0,0-4,3.58,33.69,33.69,0,0,0-3.84,4.6l0,.07c.22-.6.65-2.34.67-2.48.29-1.92-.28-5.82-2.24-6.78a2.59,2.59,0,0,0-3.43,1.25c0,.09-.07.18-.1.26-.54,1.44.11,3.23.89,4.46.87,1.39,3.85,3.33,4.09,3.49a46.19,46.19,0,0,0-3,5.31c-.51,1.06-1,2.15-1.49,3.26.15-.54.27-1,.28-1.08.29-1.93-.29-5.82-2.24-6.79a2.59,2.59,0,0,0-3.43,1.25c0,.09-.07.18-.1.26-.54,1.44.11,3.23.89,4.46s3.29,3,4,3.41c-.16.43-.36.84-.54,1.26-.85,2-1.69,4.07-2.57,6-.32.69-.65,1.37-1,2,.13-.47.23-.88.24-.93.29-1.93-.29-5.83-2.24-6.79a2.58,2.58,0,0,0-3.43,1.25c0,.09-.08.17-.11.26-.54,1.45.12,3.23.89,4.46a16,16,0,0,0,3.84,3.32c-.35.69-.71,1.37-1.09,2-.27.44-.5.88-.79,1.3l-.82,1.22c-.57.77-1.14,1.58-1.71,2.32-.39.52-.77,1-1.16,1.51.32-.69.91-2.05,1-2.18.58-1.85.6-5.79-1.18-7a2.58,2.58,0,0,0-3.57.73c-.05.08-.1.16-.14.24-.76,1.34-.39,3.2.2,4.54s3.17,3.76,3.49,4l-1.87,2.35c-2.1,2.54-3.93,4.58-5.23,6,0,.06-.09.09-.14.14l1,1.12c.08-.09.17-.18.25-.28,1.31-1.44,3.1-3.55,5.15-6.17.65-.82,1.33-1.71,2-2.64a28,28,0,0,0,3,1.36,18.72,18.72,0,0,0,.7,5.12c-1,.33-1.94.64-2.85.92-3.14,1-5.79,1.65-7.66,2.11l-.22,0,1.06,1.24c1.84-.49,4.28-1.22,7.21-2.17,1-.33,2.06-.7,3.14-1.11.21.37,1.88,3.36,3.17,4.32s2.89,1.65,4.37,1.22a2.59,2.59,0,0,0,1.86-3.15c0-.08,0-.17-.08-.26-.82-2-4.65-2.89-6.61-2.75-.11,0-1.35.26-2.12.4l1.32-.49c.89-.34,1.79-.69,2.75-1.08l1.37-.61c.47-.2.94-.46,1.4-.69,1.08-.56,2.15-1.17,3.21-1.82.3.79,1.38,3.58,2.41,4.61s2.62,2.06,4.14,1.86a2.58,2.58,0,0,0,2.32-2.83,2,2,0,0,0,0-.26c-.5-2.12-4.16-3.57-6.11-3.72-.12,0-1.54,0-2.31.07.62-.39,1.26-.78,1.89-1.2,1.82-1.21,3.61-2.47,5.42-3.74l1.66-1.15c.1.27,1.33,3.6,2.49,4.75s2.61,2.07,4.14,1.86a2.58,2.58,0,0,0,2.32-2.8,2.5,2.5,0,0,0,0-.29c-.5-2.12-4.16-3.56-6.11-3.71-.14,0-2.17.05-2.68.1,1.22-.84,2.45-1.67,3.69-2.44a43.93,43.93,0,0,1,5.19-2.8c.05.14,1.31,3.61,2.48,4.8s2.62,2.07,4.15,1.88a2.59,2.59,0,0,0,2.31-2.83,2.51,2.51,0,0,0,0-.27c-.5-2.13-4.16-3.56-6.11-3.72-.12,0-1.66.05-2.4.09l0-.13a33.83,33.83,0,0,1,5.65-1.82c1.06-.26,2.09-.44,3.09-.59.17.66,1,3.72,1.91,4.91a5.32,5.32,0,0,0,3.91,2.32,2.58,2.58,0,0,0,2.61-2.56,2.81,2.81,0,0,0,0-.29c-.27-2.17-3.75-4-5.66-4.36-.1,0-1.19-.11-2-.16l1.36-.19c1.64-.2,3.16-.28,4.49-.35l2.1-.05c.51.58,2.59,2.86,4,3.47s3.19,1,4.53.25a2.58,2.58,0,0,0,1.05-3.5Z" style="fill:#fff"></path><path d="M395.57,351.16c.49,1.64,3.05,4.49,3.06,4.49s1.36-2.26,1.43-2.41c.79-1.79,1.26-5.69-.38-7.14a2.58,2.58,0,0,0-3.64.31,1.77,1.77,0,0,0-.16.22C395,347.88,395.18,349.78,395.57,351.16Z" style="fill:#fff"></path></g><path d="M369,383.74s-9.52-25.18-15.3-24.28,8.63,39.94,8.63,39.94-17.06-34.8-29.43-35.19,3.34,38,18.61,51.08c0,0-23.9-27.45-38.52-22.13s27.84,33.69,27.84,33.69-25.69-7-23-.75,11.27,5.79,11.27,5.79l48.26.8s23.45-10.8,17.42-15.67-20,4.77-20,4.77,24.33-25.19,20.1-35.07S369.6,403.6,369.6,403.6s17.61-34.43,14.5-40.66S369,383.74,369,383.74Z" style="fill:#8D493A"></path><path d="M369,383.74s-9.52-25.18-15.3-24.28,8.63,39.94,8.63,39.94-17.06-34.8-29.43-35.19,3.34,38,18.61,51.08c0,0-23.9-27.45-38.52-22.13s27.84,33.69,27.84,33.69-25.88-7-22.93-.61c2.83,6.16,11.21,5.65,11.21,5.65l48.26.8s23.45-10.8,17.42-15.67-20,4.77-20,4.77,24.33-25.19,20.1-35.07S369.6,403.6,369.6,403.6s17.61-34.43,14.5-40.66S369,383.74,369,383.74Z" style="fill:#fff;opacity:0.5;isolation:isolate"></path><path d="M372.25,385.16c-9.92,26.52-10.52,45.49-10.52,45.49s10.71.74,22.11-7.15" style="fill:none;stroke:#fff;stroke-linecap:round;stroke-linejoin:round;stroke-width:1.1143584336278423px"></path><path d="M367.26,399.45a160.28,160.28,0,0,0-6.67-23.74" style="fill:none;stroke:#fff;stroke-linecap:round;stroke-linejoin:round;stroke-width:1.1143584336278423px"></path><path d="M341,382.93l22,35s16.08-12.7,21.67-19.95" style="fill:none;stroke:#fff;stroke-linecap:round;stroke-linejoin:round;stroke-width:1.1143584336278423px"></path><path d="M362.29,426.12s-24-12.31-33.66-19.22" style="fill:none;stroke:#fff;stroke-linecap:round;stroke-linejoin:round;stroke-width:1.1143584336278423px"></path><path d="M100.38,350.27c-2,2.13-.88,7.26.41,9.5.11.2,2.17,3.05,2.2,3l.06,0c.18.84.36,1.67.59,2.62.44,1.73,1,3.67,1.64,5.77a63.83,63.83,0,0,0,2.57,6.65,44.93,44.93,0,0,0,3.9,6.93.41.41,0,0,1,0,.09c-.67-.53-2.6-1.91-2.77-2-2.25-1.28-7.37-2.4-9.5-.42a3.44,3.44,0,0,0,0,4.87l.26.23c1.53,1.35,4.06,1.39,6,1,2.14-.43,6-3.22,6.27-3.44a59.43,59.43,0,0,0,5.18,6.25c1.08,1.14,2.2,2.27,3.34,3.39-.59-.44-1.13-.82-1.21-.86-2.27-1.27-7.37-2.4-9.5-.42a3.43,3.43,0,0,0-.06,4.85l.28.25c1.54,1.36,4.06,1.39,6,1s5.22-2.7,6.1-3.32l1.32,1.28c2.12,2,4.26,4,6.27,6,.72.71,1.4,1.45,2.06,2.18-.53-.39-1-.7-1-.74-2.25-1.27-7.37-2.4-9.5-.42a3.43,3.43,0,0,0-.05,4.85l.28.25c1.53,1.36,4.06,1.39,6,1s4.91-2.47,6-3.21c.68.77,1.35,1.54,2,2.31.42.54.85,1,1.24,1.6s.77,1.09,1.15,1.63c.71,1.06,1.43,2.16,2.09,3.22.45.7.87,1.41,1.3,2.11-.7-.72-2.11-2.11-2.24-2.21a13.38,13.38,0,0,0-6.27-2.44,3.92,3.92,0,0,0-.64-.42,3.45,3.45,0,0,0-4.7,1.28,1.91,1.91,0,0,0-.16.32c-1.07,2.7,1.8,7.06,3.8,8.72.12.1,1.52,1,2.39,1.54l-1.72-.76-3.63-1.48-1.88-.68c-.63-.24-1.31-.42-2-.63-1.54-.46-3.13-.85-4.76-1.24.41-1,1.94-4.72,1.93-6.64s-.61-4.39-2.26-5.6a3.42,3.42,0,0,0-4.81.56c-.08.1-.15.21-.22.31-1.49,2.51.71,7.25,2.43,9.19.11.12,1.5,1.37,2.28,2-1-.2-1.93-.41-2.92-.6-2.86-.51-5.76-1-8.65-1.4-.89-.13-1.78-.29-2.66-.42.16-.37,2.06-4.69,2-6.86,0-1.93-.6-4.39-2.25-5.61a3.43,3.43,0,0,0-4.82.57,3.37,3.37,0,0,0-.21.31c-1.49,2.5.7,7.25,2.43,9.18.09.17,2.13,1.95,2.66,2.38-1.94-.31-3.87-.65-5.77-1.06a62,62,0,0,1-7.58-2.08c.08-.17,2.07-4.67,2-6.88,0-1.93-.6-4.4-2.25-5.61a3.43,3.43,0,0,0-4.81.56c-.08.1-.15.21-.22.31-1.48,2.51.71,7.26,2.44,9.19.07.15,1.64,1.5,2.37,2.14l-.08.14a44.32,44.32,0,0,1-7.1-3.45c-1.25-.73-2.42-1.53-3.51-2.28.45-.8,2.51-4.47,2.7-6.48s-.12-4.43-1.62-5.82a3.43,3.43,0,0,0-4.86,0,1.55,1.55,0,0,0-.24.27C74,399,75.6,404,77.1,406.08c.06.13,1,1.2,1.74,2L77.35,407c-1.75-1.31-3.28-2.62-4.63-3.8-.76-.67-1.42-1.29-2-1.89,0-1,.14-5.11-.6-6.95s-2.13-3.89-4.14-4.41a3.43,3.43,0,0,0-4.29,2.27,2.37,2.37,0,0,0-.09.36c-.47,2.86,3.29,6.51,5.59,7.69.2.1,3.49,1.35,3.47,1.31l0-.05,1.9,1.87c1.31,1.18,2.83,2.56,4.56,3.91a60.27,60.27,0,0,0,5.8,4.12A45.62,45.62,0,0,0,89.93,415l.09,0c-.85-.06-3.23-.18-3.41-.14-2.58.19-7.46,2.07-8.16,4.88a3.46,3.46,0,0,0,2.66,4.09l.35.05c2,.29,4.15-1.08,5.52-2.45,1.54-1.54,3.2-6,3.32-6.36A61.41,61.41,0,0,0,98,417.51c1.54.37,3.1.69,4.66,1l-1.48,0c-2.59.18-7.47,2.07-8.16,4.89a3.44,3.44,0,0,0,2.65,4.08c.11,0,.23,0,.35.06,2,.29,4.15-1.09,5.52-2.46s2.91-5.14,3.26-6.13l1.81.33c2.89.51,5.78,1,8.59,1.58,1,.2,2,.44,2.93.67-.65,0-1.2,0-1.29,0-2.58.18-7.47,2.07-8.15,4.88a3.45,3.45,0,0,0,2.65,4.09l.35,0c2,.29,4.15-1.08,5.52-2.45s2.73-4.78,3.19-6c1,.27,2,.54,2.92.84.64.22,1.27.39,1.9.65l1.87.72c1.19.5,2.39,1,3.52,1.54.78.35,1.53.7,2.28,1.06-1-.22-2.92-.59-3.09-.6-2.59-.21-7.7.91-8.78,3.63a3.42,3.42,0,0,0,2,4.42l.36.11c2,.59,4.27-.44,5.83-1.58,1.71-1.26,4-5.23,4.23-5.72,1.23.59,2.46,1.16,3.57,1.75,3.91,2,7.09,3.75,9.3,5l.22.13,1.18-1.58-.44-.25c-2.26-1.24-5.51-3-9.5-4.88-1.25-.61-2.61-1.22-4-1.84a39.45,39.45,0,0,0,.87-4.3c2.19-.2,6-2.16,6.44-2.41.72,1.18,1.4,2.33,2,3.43,2.17,3.79,3.85,7,5,9.33l.13.26,1.3-1.74c-1.17-2.25-2.83-5.24-4.93-8.72-.71-1.2-1.5-2.47-2.33-3.76.43-.37,3.81-3.4,4.66-5.34.78-1.77,1.29-4.24.31-6a3.44,3.44,0,0,0-4.62-1.51l-.33.19c-2.38,1.65-2.39,6.88-1.64,9.37.07.13.71,1.68,1.13,2.64-.34-.52-.66-1-1-1.58-.7-1.06-1.43-2.11-2.21-3.23l-1.2-1.62c-.38-.54-.86-1.06-1.3-1.61-1-1.24-2.14-2.44-3.29-3.64.94-.6,4.22-2.83,5.27-4.46s1.92-4,1.21-5.92a3.43,3.43,0,0,0-4.32-2.19,3.84,3.84,0,0,0-.36.14c-2.61,1.27-3.42,6.42-3,9,0,.16.5,2,.77,3-.69-.7-1.38-1.42-2.1-2.12-2.1-2-4.28-4-6.45-5.94l-2-1.81c.33-.22,4.29-2.78,5.47-4.61,1-1.62,1.92-4,1.21-5.91a3.42,3.42,0,0,0-4.34-2.19,2.37,2.37,0,0,0-.34.13c-2.61,1.28-3.42,6.42-3,9,0,.2.71,2.8.91,3.46-1.45-1.34-2.88-2.69-4.23-4.08a60.38,60.38,0,0,1-5.15-5.91c.17-.09,4.31-2.75,5.51-4.63,1-1.62,1.92-4,1.21-5.92a3.43,3.43,0,0,0-4.34-2.18l-.34.13c-2.61,1.27-3.42,6.42-3,9,0,.18.54,2.15.81,3.09l-.15.08a44.52,44.52,0,0,1-4-6.79,40.76,40.76,0,0,1-1.68-3.84c.82-.42,4.55-2.36,5.81-3.94s2.36-3.76,1.87-5.75a3.43,3.43,0,0,0-4.06-2.65l-.37.1c-2.74,1-4.1,6-4,8.59,0,.15.21,1.57.36,2.59-.22-.57-.45-1.16-.65-1.7-.73-2.07-1.27-4-1.76-5.73-.26-1-.47-1.87-.67-2.7.59-.83,3-4.2,3.32-6.13s.36-4.42-1-6A3.44,3.44,0,0,0,100.38,350.27Z" style="fill:#8D493A"></path><g style="opacity:0.5"><path d="M106.1,373.39s-2.16-2.77-2.32-2.92c-1.87-1.81-6.48-4.26-9-2.92a3.43,3.43,0,0,0-1.32,4.68c.06.1.12.21.19.31,1.13,1.7,3.55,2.41,5.48,2.53C101.34,375.23,106.1,373.39,106.1,373.39Z" style="fill:#8D493A"></path><path d="M100.38,350.17c-2,2.13-.88,7.26.42,9.5.1.2,2.17,3.05,2.2,3l0,0c.18.84.36,1.67.59,2.62.44,1.73,1,3.67,1.64,5.78a63.73,63.73,0,0,0,2.58,6.64,44.11,44.11,0,0,0,3.9,6.93.36.36,0,0,1,0,.09c-.67-.53-2.59-1.91-2.76-2-2.26-1.27-7.37-2.4-9.5-.42a3.44,3.44,0,0,0,0,4.87l.26.23c1.54,1.35,4.06,1.39,6,1,2.14-.43,6-3.22,6.27-3.44a62,62,0,0,0,5.18,6.25c1.08,1.15,2.2,2.27,3.35,3.39-.6-.44-1.14-.82-1.22-.86-2.26-1.27-7.37-2.4-9.5-.42a3.43,3.43,0,0,0,0,4.85,3.2,3.2,0,0,0,.27.25c1.54,1.36,4.07,1.39,6,1s5.23-2.7,6.11-3.32c.44.42.87.86,1.32,1.28,2.12,2,4.26,4,6.27,6,.71.71,1.39,1.45,2.06,2.18l-1.05-.74c-2.26-1.27-7.37-2.4-9.5-.42a3.43,3.43,0,0,0-.06,4.85l.28.25c1.54,1.36,4.06,1.39,6,1s4.91-2.48,5.94-3.22c.68.77,1.36,1.54,2,2.31.42.54.85,1,1.24,1.6s.77,1.09,1.16,1.63c.7,1.06,1.43,2.16,2.09,3.22.44.7.87,1.41,1.3,2.11-.7-.72-2.12-2.11-2.24-2.21a13.48,13.48,0,0,0-6.28-2.44,3.31,3.31,0,0,0-.64-.41,3.44,3.44,0,0,0-4.7,1.27,3.18,3.18,0,0,0-.16.32c-1.07,2.7,1.81,7.06,3.81,8.72.11.1,1.51,1,2.39,1.54l-1.73-.76-3.62-1.48-1.89-.68c-.62-.24-1.31-.41-2-.63-1.54-.46-3.13-.85-4.75-1.24.4-1,1.93-4.72,1.92-6.63s-.6-4.4-2.25-5.61a3.44,3.44,0,0,0-4.82.56c-.08.1-.15.21-.22.31-1.48,2.51.72,7.25,2.44,9.19.11.12,1.5,1.37,2.27,2-1-.2-1.93-.41-2.92-.6-2.85-.51-5.75-.95-8.65-1.4-.89-.13-1.77-.28-2.65-.42.16-.37,2-4.69,2-6.86,0-1.93-.6-4.39-2.25-5.61a3.42,3.42,0,0,0-4.81.57,3.46,3.46,0,0,0-.22.31c-1.48,2.5.71,7.25,2.44,9.19.08.16,2.13,1.94,2.66,2.37-2-.31-3.88-.65-5.78-1.06a62,62,0,0,1-7.58-2.08c.08-.17,2.08-4.67,2-6.88,0-1.93-.6-4.39-2.25-5.61a3.43,3.43,0,0,0-4.82.57,2,2,0,0,0-.21.3c-1.49,2.51.7,7.26,2.43,9.19.08.15,1.64,1.5,2.38,2.14l-.09.14a44.22,44.22,0,0,1-7.09-3.45c-1.25-.73-2.42-1.53-3.51-2.28.45-.79,2.5-4.47,2.69-6.48s-.11-4.43-1.62-5.82a3.44,3.44,0,0,0-4.86,0c-.08.08-.16.18-.24.27-1.74,2.33-.08,7.29,1.41,9.41.07.12,1,1.19,1.75,2l-1.49-1.09c-1.76-1.31-3.28-2.62-4.63-3.79-.76-.68-1.43-1.3-2-1.89,0-1,.13-5.12-.6-7s-2.14-3.89-4.14-4.41a3.44,3.44,0,0,0-4.3,2.27l-.09.36c-.46,2.86,3.29,6.51,5.6,7.69.19.1,3.48,1.36,3.46,1.31l0-.05c.6.61,1.23,1.22,1.89,1.87,1.31,1.18,2.83,2.56,4.57,3.91a57.42,57.42,0,0,0,5.8,4.12,45.08,45.08,0,0,0,7.08,3.64l.09,0c-.85-.06-3.23-.18-3.4-.14-2.59.19-7.47,2.07-8.16,4.89a3.44,3.44,0,0,0,2.65,4.08l.36.05c2,.29,4.15-1.08,5.51-2.45,1.55-1.54,3.2-6,3.32-6.36A61.05,61.05,0,0,0,98,417.41c1.53.37,3.09.69,4.65,1l-1.48,0c-2.58.19-7.46,2.07-8.15,4.89a3.43,3.43,0,0,0,2.64,4.08,2.25,2.25,0,0,0,.36.06c2,.29,4.15-1.09,5.52-2.46s2.9-5.14,3.26-6.13l1.81.33c2.88.51,5.77,1,8.58,1.58,1,.21,2,.45,2.93.67-.65,0-1.2,0-1.29,0-2.58.18-7.46,2.07-8.15,4.88a3.45,3.45,0,0,0,2.65,4.09l.35.06c2,.28,4.16-1.09,5.52-2.46s2.74-4.78,3.19-6c1,.27,2,.54,2.92.84.64.22,1.27.39,1.91.65l1.87.72c1.18.5,2.38,1,3.51,1.54.79.35,1.54.71,2.29,1.06-1-.21-2.93-.59-3.1-.6-2.58-.21-7.69.91-8.78,3.63a3.43,3.43,0,0,0,2,4.42l.36.12c2,.58,4.27-.45,5.83-1.59,1.72-1.26,4-5.23,4.23-5.72,1.24.59,2.46,1.17,3.57,1.75,3.92,2,7.1,3.75,9.3,5l.23.13,1.17-1.58-.44-.25c-2.26-1.24-5.51-3-9.5-4.87-1.25-.62-2.61-1.23-4-1.85a39,39,0,0,0,.87-4.3c2.19-.2,6-2.16,6.45-2.41.71,1.18,1.39,2.33,2,3.43,2.17,3.79,3.84,7,5,9.33l.14.26,1.29-1.74c-1.17-2.25-2.82-5.24-4.92-8.72-.72-1.2-1.51-2.47-2.33-3.76.42-.37,3.8-3.4,4.65-5.34.79-1.77,1.29-4.24.31-6a3.43,3.43,0,0,0-4.62-1.5,2,2,0,0,0-.32.18c-2.39,1.65-2.39,6.88-1.64,9.37.07.13.7,1.68,1.12,2.64l-1-1.58c-.7-1.06-1.43-2.11-2.2-3.23l-1.2-1.62c-.39-.54-.86-1.06-1.3-1.61-1-1.24-2.14-2.44-3.29-3.64.93-.6,4.21-2.83,5.27-4.46s1.92-4,1.21-5.92a3.44,3.44,0,0,0-4.33-2.19l-.35.14c-2.61,1.27-3.43,6.42-3,9,0,.16.49,2,.76,3-.69-.7-1.37-1.42-2.1-2.12-2.1-2-4.27-4-6.45-5.94l-2-1.81c.33-.22,4.3-2.78,5.47-4.61,1-1.62,1.92-4,1.22-5.91a3.43,3.43,0,0,0-4.34-2.19l-.35.13c-2.6,1.28-3.42,6.42-3,9,0,.2.71,2.8.91,3.46-1.44-1.34-2.87-2.69-4.22-4.08a57.82,57.82,0,0,1-5.15-5.91c.16-.09,4.3-2.75,5.51-4.63,1-1.62,1.92-4,1.21-5.92a3.44,3.44,0,0,0-4.35-2.18l-.33.13c-2.61,1.27-3.43,6.42-3,9,0,.18.54,2.16.8,3.1l-.14.07a44.58,44.58,0,0,1-4-6.79c-.66-1.29-1.18-2.58-1.68-3.84.82-.42,4.56-2.36,5.82-3.94s2.36-3.76,1.86-5.75a3.42,3.42,0,0,0-4.06-2.64,2.54,2.54,0,0,0-.37.1c-2.73,1-4.09,6-4,8.58,0,.15.21,1.57.36,2.6-.21-.58-.44-1.17-.64-1.71-.74-2.07-1.28-4-1.76-5.73-.26-1-.48-1.86-.67-2.7.59-.83,3-4.2,3.32-6.13s.35-4.42-1-6A3.45,3.45,0,0,0,100.38,350.17Z" style="fill:#fff"></path><path d="M74.4,414c2-1.12,4.92-5.27,4.93-5.27s-3.35-1.1-3.55-1.16c-2.56-.53-7.75,0-9.15,2.56a3.42,3.42,0,0,0,1.45,4.62l.35.16C70.32,415.74,72.73,415,74.4,414Z" style="fill:#8D493A"></path></g></g></g><g id="freepik--Stats--inject-61"><circle cx="249.96" cy="240.15" r="114.11" style="fill:none;stroke:#263238;stroke-linecap:round;stroke-linejoin:round;stroke-width:1.8883592438739045px"></circle><g id="freepik--stats--inject-61"><path d="M242.83,240,167.62,341.06a118.34,118.34,0,0,1-39.71-45.25Z" style="fill:#8D493A;stroke:#263238;stroke-miterlimit:10;stroke-width:0.9441796219369523px"></path><path d="M242.16,240.74l-74.33,99.93A117,117,0,0,1,128.58,296Z" style="fill:#fff;opacity:0.30000000000000004"></path><line x1="193.67" y1="298.44" x2="200.6" y2="289.82" style="fill:none;stroke:#fff;stroke-linecap:round;stroke-linejoin:round;stroke-width:0.9441796219369523px"></line><path d="M154.85,322.5a80.15,80.15,0,0,0,11.78,9.55l24.14-30" style="fill:none;stroke:#fff;stroke-linecap:round;stroke-linejoin:round;stroke-width:0.9441796219369523px"></path><path d="M143.22,310s3,3.67,7.39,8.25" style="fill:none;stroke:#fff;stroke-linecap:round;stroke-linejoin:round;stroke-width:0.9441796219369523px"></path><path d="M392.66,247.58A136.56,136.56,0,0,1,375,315L245.71,240,389,216c1.17,4.94,2.61,15.25,2.61,15.25A130.21,130.21,0,0,1,392.66,247.58Z" style="fill:#8D493A;stroke:#263238;stroke-miterlimit:10;stroke-width:0.9441796219369523px"></path><path d="M392.1,247.58A136.56,136.56,0,0,1,374.4,315L244.61,240,388.45,216c1.17,4.94,2.62,15.25,2.62,15.25A131.89,131.89,0,0,1,392.1,247.58Z" style="fill:#fff;opacity:0.30000000000000004"></path><path d="M383.05,279.7a93.29,93.29,0,0,0,2.61-10.35" style="fill:none;stroke:#fff;stroke-linecap:round;stroke-linejoin:round;stroke-width:0.9441796219369523px"></path><path d="M351.1,292.88l22.13,10.73A160.22,160.22,0,0,0,381.64,284" style="fill:none;stroke:#fff;stroke-linecap:round;stroke-linejoin:round;stroke-width:0.9441796219369523px"></path><line x1="335.41" y1="285.27" x2="347.16" y2="290.97" style="fill:none;stroke:#fff;stroke-linecap:round;stroke-linejoin:round;stroke-width:0.9441796219369523px"></line><path d="M183.64,71.39c-34.21,8.54-76.38,45.69-76.38,45.69l.44.43L242.31,240Z" style="fill:#8D493A;stroke:#263238;stroke-miterlimit:10;stroke-width:0.9441796219369523px"></path><path d="M184,73.6v0l-.09,0c-38.83,9.86-74.75,44.71-74.75,44.71l.44.43L241.31,238.59Z" style="fill:#fff;opacity:0.30000000000000004"></path><line x1="149.89" y1="150.15" x2="162.99" y2="162.52" style="fill:none;stroke:#fff;stroke-linecap:round;stroke-linejoin:round;stroke-width:0.9441796219369523px"></line><path d="M131,103.18a141.88,141.88,0,0,0-16.07,13.91L145.52,146" style="fill:none;stroke:#fff;stroke-linecap:round;stroke-linejoin:round;stroke-width:0.9441796219369523px"></path><path d="M142.55,95.1s-3.44,2.15-8.3,5.65" style="fill:none;stroke:#fff;stroke-linecap:round;stroke-linejoin:round;stroke-width:0.9441796219369523px"></path><path d="M182.6,125.32l2.88-1.32-.61-3.46-3.19-.25a14.32,14.32,0,0,0-1.6-3l1.67-2.74L179.26,112l-2.8,1.66a14,14,0,0,0-5.35-2.18l-.79-3.19h-3.53l-.8,3.19a13.77,13.77,0,0,0-3.19,1l-2.52-2.18-2.88,2,1.19,3.11a14.77,14.77,0,0,0-2,2.63l-3.31-.34-1.21,3.3,2.75,1.87a14.13,14.13,0,0,0-.2,2.34v1l-2.89,1.6.91,3.4,3.27-.05a13.65,13.65,0,0,0,1.8,2.86L156.27,137l2.72,2.27,2.61-1.87a14.23,14.23,0,0,0,3.2,1.33l.52,3.15,3.51.31,1.06-3a14,14,0,0,0,3.38-.73l2.21,2.25,3.05-1.76-.84-3a13.85,13.85,0,0,0,2.35-2.55l3.1.57,1.49-3.19-2.4-2A14.74,14.74,0,0,0,182.6,125.32Zm-5.22,0a8.79,8.79,0,1,1-8.78-8.79,8.78,8.78,0,0,1,8.78,8.79Z" style="fill:#fff;stroke:#263238;stroke-linecap:round;stroke-linejoin:round;stroke-width:0.9441796219369523px"></path></g><path d="M328.23,79.57l-17.52,4.49,4.43-17.52a18,18,0,1,0,13.09,13Z" style="fill:#8D493A;stroke:#263238;stroke-linecap:round;stroke-linejoin:round;stroke-width:0.9799342751502991px"></path><path d="M330.61,76.32c-1.43-5.6-6.72-11.09-12.33-12.49l-4.47,17.09Z" style="fill:#263238"></path></g><g id="freepik--Character--inject-61"><g id="freepik--character--inject-61"><path d="M244.22,179l2.87,14.35s6,2.55,18,0l5.56-17.89s-5.49-.92-6.06-15.47l5.67-10.21s2.46,4.35,4.54-.19,4.35-11.91.57-12.09-6.81.56-13.23-3-13.05-11.72-13.05-11.72l-8.88,7.94s-2.65,22.12,8.32,30.62c-1.56.3-.38,14.27.65,14.82C250.83,177,244.22,179,244.22,179Z" style="fill:#fff"></path><path d="M241.12,129.09s-.35,13.69,2.25,22.75,10.61,14.23,14.9,12.46c3-1.24,9-6,11.37-15.85" style="fill:none;stroke:#263238;stroke-linecap:round;stroke-linejoin:round;stroke-width:0.9441796219369523px"></path><path d="M252.11,140.67c.07,1,.46,1.71.88,1.68s.7-.83.63-1.79-.46-1.71-.87-1.68S252.05,139.71,252.11,140.67Z" style="fill:#263238"></path><path d="M244,140.66c.06,1,.45,1.71.87,1.68s.7-.83.64-1.79-.46-1.71-.88-1.68S243.9,139.7,244,140.66Z" style="fill:#263238"></path><path d="M247.19,139.67a10.07,10.07,0,0,1,.16,2.68,3.32,3.32,0,0,1-1.23,2.32,4.24,4.24,0,0,0-.89.67,1.65,1.65,0,0,0,.15,1.94,14.67,14.67,0,0,0,1.48,1.47" style="fill:none;stroke:#263238;stroke-linecap:round;stroke-linejoin:round;stroke-width:0.9441796219369523px"></path><path d="M254.69,151.42a10.7,10.7,0,0,1-2.34,1.91,5.38,5.38,0,0,1-4,.22" style="fill:none;stroke:#263238;stroke-linecap:round;stroke-linejoin:round;stroke-width:0.9441796219369523px"></path><path d="M242.8,136.35s.57-3.16,3.59-1.92" style="fill:none;stroke:#263238;stroke-linecap:round;stroke-linejoin:round;stroke-width:0.9441796219369523px"></path><path d="M252.2,134.64a3,3,0,0,1,3.46-1.25,4.8,4.8,0,0,1,2.75,2.73" style="fill:none;stroke:#263238;stroke-linecap:round;stroke-linejoin:round;stroke-width:0.9441796219369523px"></path><path d="M270,141s1.17-3.88,3.79-3.43,3.15,2.44,2.61,5.59-2.16,7.31-4.87,6.23a3.53,3.53,0,0,1-2.43-3.52" style="fill:none;stroke:#263238;stroke-linecap:round;stroke-linejoin:round;stroke-width:0.9441796219369523px"></path><path d="M264.26,160.53a47.88,47.88,0,0,0,1.22,8.15,13.92,13.92,0,0,0,1.34,4,5.56,5.56,0,0,0,3.17,2.71" style="fill:none;stroke:#263238;stroke-linecap:round;stroke-linejoin:round;stroke-width:0.9441796219369523px"></path><path d="M244.17,179.61l4.15-2.27a1.58,1.58,0,0,0,.83-1.26c.21-2.6.74-10.05-.83-15.2" style="fill:none;stroke:#263238;stroke-linecap:round;stroke-linejoin:round;stroke-width:0.9441796219369523px"></path><path d="M255.51,116.74s-9.51-3.65-15.43,8.87-4.23,19.48-13.62,30.44-6.09,22.61-1.74,28.87l4.82-1s-1-2.14,3.18-2.83,10.18-1.89,10.18-1.89l1.82.6L249,177.2a71.17,71.17,0,0,0-.45-16.66s-4.47-4.49-5.69-10.23S241.24,131,241.24,131s3.88-.49,7-6.45C251.57,121.87,254.57,121.24,255.51,116.74Z" style="fill:#263238"></path><path d="M271.49,138.5c-10.15-2.41-19.87-8.1-23.62-16.06l7.64-5.7s16-7.9,22.33,9.77,2.21,49.64,2.21,49.64l-7.9-1.43-1.53.69a8.18,8.18,0,0,1-5.14-6.73A72.42,72.42,0,0,0,264,160a23.16,23.16,0,0,0,5.74-11.6s4.82,4.39,6.49-3.32C277.31,140,275.45,135.77,271.49,138.5Z" style="fill:#263238"></path><path d="M255.73,117.43s3.68-5.84,10.2-4.76" style="fill:none;stroke:#263238;stroke-linecap:round;stroke-linejoin:round;stroke-width:0.9441796219369523px"></path><path d="M238.26,149.53a23.79,23.79,0,0,1-1.1,2.67c-1.39,2.83-3.4,5.31-4.91,8.09a25.88,25.88,0,0,0-1.75,20.35" style="fill:none;stroke:#fff;stroke-linecap:round;stroke-linejoin:round;stroke-width:0.47208981096847613px"></path><path d="M242.28,153.84a46.31,46.31,0,0,0-1.71,24.69" style="fill:none;stroke:#fff;stroke-linecap:round;stroke-linejoin:round;stroke-width:0.47208981096847613px"></path><path d="M255.59,121s6.89,11.31,16.68,15.3" style="fill:none;stroke:#fff;stroke-linecap:round;stroke-linejoin:round;stroke-width:0.47208981096847613px"></path><path d="M257.52,119.36s12.68-.69,17,16.69" style="fill:none;stroke:#fff;stroke-linecap:round;stroke-linejoin:round;stroke-width:0.47208981096847613px"></path><path d="M248.57,424.84s7.53,13.7,7.77,17.4-4.56,5.8-4.56,5.8L245,443.91s-5-6.73-4.62-17.71S248.57,424.84,248.57,424.84Z" style="fill:#fff"></path><path d="M248.77,425.38c2.43,5,5.18,10.25,7.44,15.58a12.2,12.2,0,0,1,1.18,4.33,4.52,4.52,0,0,1-1.76,3.94c-1.62,1.07-3.83.55-5.51-.42a15.85,15.85,0,0,1-5.08-4.9c-4.33-6.33-5.08-14.44-4.61-22.09" style="fill:none;stroke:#263238;stroke-linecap:round;stroke-linejoin:round;stroke-width:0.9441796219369523px"></path><path d="M244,441.79c.57,1.2,3.17,2.71,4.39,3.21a6.53,6.53,0,0,0,5.2-.06c2.51-1.34,1.28-4.63,1.31-6.82,0,0,5,9.27.47,11.43S245,443.79,244,441.79Z" style="fill:#263238"></path><path d="M287,416.69s.62,6.67-5.92,13-5.31,4.2-3.21,7,10.36.49,10.36.49l4.32-4.2s5.06-10,1.36-17.64S287,416.69,287,416.69Z" style="fill:#fff"></path><path d="M286.63,417.9c0,4.74-2.76,9.34-6.41,12.38a37.91,37.91,0,0,0-4.16,3.41c-1.2,1.33-2,3.24-1.38,4.93a4.63,4.63,0,0,0,3.81,2.7c6.16.78,11.84-4.18,14.11-9.53A27,27,0,0,0,295,419.7c-.3-4.34-1.88-8.47-3.43-12.49" style="fill:none;stroke:#263238;stroke-linecap:round;stroke-linejoin:round;stroke-width:0.9441796219369523px"></path><path d="M278.18,431.77a2.81,2.81,0,0,0,0,.29,3.72,3.72,0,0,0,1.92,3,6.74,6.74,0,0,0,3.86.73,12.27,12.27,0,0,0,8.65-4.48s-4.68,11.7-14.31,9.66S278.18,431.77,278.18,431.77Z" style="fill:#263238"></path><path d="M218.73,284l-.15.64c-1,4.09-5.83,27,1.81,47.95,8.43,23.06,12.86,22.17,9.76,33.26s-4.69,32.31,9.94,61.57l9.12-.39s-8.42-106.41-7.09-134.34h3.54s7.79,85.5,41,125.85l7.82-2.11s-.08-22.65-5-37.73-14.19-17.73-14.63-33.25,9.31-38.57,6.2-62.07l-10.86,8.9-7.13-14.73s-14.38,10.33-33-5.67Z" style="fill:#263238"></path><path d="M214.54,204.77l5.06-19.15,9.82-1.59s-1.23-2.3,1.5-2.45,13.38-2.15,13.38-2.15l9.39,51.75,16.93-55.77s1-.71,3.84-.49,9.61,1.23,10,1.88,1.9.94,1.9.94,10.24-.34,11,4.53c1.4,5.89-2,47.46-2,47.46s10.27,9.83,12.65,14.37l-7.4,10.67L287,247.55l-9.21-5.94-1.45,2.4L294,272.8l-23.69,19.44-18-43.7L218.73,284l-6-23.91,21.51-21.89-4.05-6s-7.83,14.31-11.87,14.61-12.24-10.6-13-12a1.36,1.36,0,0,1,.72-2s-6.49-9.25-4.47-11.58c1.33-1.41,9.53,3.4,13.09,2.57,2.51-.73,4.06-3.48,5.91-7.31a17.78,17.78,0,0,1-2.39-3.21Z" style="fill:#8D493A"></path><path d="M216,222.81s4.18-5,4.63-6.38c0,0,2.41-1,3,1.41a18.59,18.59,0,0,0,2.34,6.38c1.32,2.07-.65,4.6-2.72,6.95s-3.17,5.52-5.34,5.72-10.71-3.66-10.71-3.66A5,5,0,0,1,204,229.1c-.47-3.28-3.43-5.9-2.42-8s7.11,2.62,9.74,2.44A3.84,3.84,0,0,0,216,222.81Z" style="fill:#fff;opacity:0.5"></path><path d="M254.67,231.68s27.46-29.36,28.46-32.05-2.93-5.84-2.93-5.84-3.39-2.35-2.38-5.3,6.72-7.13,7.2-9.36-.52-2.33-.52-2.33S272,174,271.16,174.54s-7.26,24.55-7.26,24.55Z" style="fill:#fff;opacity:0.5"></path><path d="M253.57,229.59s-8-47.92-8.85-49.78-6.91.53-6.91.53-8.21.21-8.58,2.06S234.8,193,234.8,193s-5.4,9-6,10.65,21.65,28.92,21.65,28.92,1.67,1.86,3,1.86S253.57,229.59,253.57,229.59Z" style="fill:#fff;opacity:0.5"></path><path d="M242.9,179.21l-12.28,2.34a1.55,1.55,0,0,0-1.17,2.28l5,8.46a1.6,1.6,0,0,1,0,1.61l-5.68,9.74a1.6,1.6,0,0,0,.13,1.81l22.67,28.15a1.34,1.34,0,0,0,2.18-.12h0a1.55,1.55,0,0,0,.23-1.13l-9.19-51.85A1.61,1.61,0,0,0,242.9,179.21Z" style="fill:none;stroke:#263238;stroke-linecap:round;stroke-linejoin:round;stroke-width:0.9441796219369523px"></path><path d="M254.08,233l16.28-57.1a1.62,1.62,0,0,1,1.79-1.14L284,176.58a1.59,1.59,0,0,1,1,2.55l-7.2,9.36a1.59,1.59,0,0,0,0,1.93l5.4,7.2a1.61,1.61,0,0,1-.07,2Z" style="fill:none;stroke:#263238;stroke-linecap:round;stroke-linejoin:round;stroke-width:0.9441796219369523px"></path><path d="M265.06,193.3c-7,2.78-18,0-18,0l6.88,39Z" style="fill:#263238"></path><path d="M204.66,221.21c-1.21-.84-2.56-.84-3.13-.08a2.87,2.87,0,0,0-.1,2.73c.36.88.95,1.64,1.36,2.5.48,1,.69,2.19,1.14,3.24,1.63,3.77,5.93,5.48,9.8,6.81a4.91,4.91,0,0,0,6.92-1.9l4.29-5.36a6.29,6.29,0,0,0,1.26-2.06c.79-2.63-1.86-5-2.48-7.65a8,8,0,0,0-.72-2.76c-.53-.8-2.39-1-2.77-.15" style="fill:none;stroke:#263238;stroke-linecap:round;stroke-linejoin:round;stroke-width:0.9441796219369523px"></path><path d="M254.08,233.16a10.93,10.93,0,0,0-3,8.45,31.44,31.44,0,0,0,2.16,9q7.52,21.22,17.06,41.66L294,272.8,276.34,244l1.33-2.58" style="fill:none;stroke:#263238;stroke-linecap:round;stroke-linejoin:round;stroke-width:0.9441796219369523px"></path><polyline points="230.28 231.81 234.4 238.2 212.76 260.05 218.73 283.96 252.54 248.71" style="fill:none;stroke:#263238;stroke-linecap:round;stroke-linejoin:round;stroke-width:0.9441796219369523px"></polyline><ellipse cx="256.84" cy="240.31" rx="1.75" ry="2.82" style="fill:#263238"></ellipse><path d="M228.76,273.29s17.62,13,35.8,6.9L252.5,249.08Z" style="fill:#263238"></path><path d="M214.69,205.28c0-4.94,4.91-19.66,4.91-19.66,2.47-.73,9.94-1.69,9.94-1.69" style="fill:none;stroke:#263238;stroke-linecap:round;stroke-linejoin:round;stroke-width:0.9441796219369523px"></path><path d="M285.43,177.81l7.89.88a4.79,4.79,0,0,1,4.45,4.91l-2.31,46.66s6.29,3.9,12.56,13.86" style="fill:none;stroke:#263238;stroke-linecap:round;stroke-linejoin:round;stroke-width:0.9441796219369523px"></path><path d="M295.63,230.53c-3,.13-5.6.18-8.61.3" style="fill:none;stroke:#263238;stroke-linecap:round;stroke-linejoin:round;stroke-width:0.9441796219369523px"></path><path d="M295.12,230.39l-7,4.63" style="fill:none;stroke:#263238;stroke-linecap:round;stroke-linejoin:round;stroke-width:0.9441796219369523px"></path><path d="M256.52,246.17,267.1,259" style="fill:none;stroke:#263238;stroke-linecap:round;stroke-linejoin:round;stroke-width:0.9441796219369523px"></path><path d="M259.65,246.19a18.48,18.48,0,0,1,3.89,2.8" style="fill:none;stroke:#263238;stroke-linecap:round;stroke-linejoin:round;stroke-width:0.9441796219369523px"></path><path d="M234.26,238.28a16,16,0,0,0,5.22,1.64" style="fill:none;stroke:#263238;stroke-linecap:round;stroke-linejoin:round;stroke-width:0.9441796219369523px"></path><path d="M206,232.7a1.78,1.78,0,0,0-.61,2.05,5.23,5.23,0,0,0,1.29,1.88l6.69,7.17c1.26,1.36,2.74,2.81,4.59,2.88s3.43-1.3,4.66-2.7a57.9,57.9,0,0,0,5.43-7.72,18,18,0,0,0,1.74-3.27,18.53,18.53,0,0,0,.84-4.44q.57-5.58,1.15-11.16" style="fill:none;stroke:#263238;stroke-linecap:round;stroke-linejoin:round;stroke-width:0.9441796219369523px"></path><path d="M300.77,254.67s-18.31-8.83-23.1-13.24c0,0-1.35-16.67.95-32" style="fill:none;stroke:#263238;stroke-linecap:round;stroke-linejoin:round;stroke-width:0.9441796219369523px"></path><path d="M273.54,214.61a14.09,14.09,0,0,0,2.52,7.57" style="fill:none;stroke:#263238;stroke-linecap:round;stroke-linejoin:round;stroke-width:0.9441796219369523px"></path><polygon points="341.68 247.19 342.11 250.25 339.55 254.3 338.12 251.74 341.68 247.19" style="fill:#8D493A"></polygon><polygon points="297.12 262.84 319.78 281.2 330.01 264.82 332.02 266.36 320.3 285.28 299.11 267.59 297.12 262.84" style="fill:#8D493A"></polygon><polygon points="341.68 247.19 342.11 250.25 339.55 254.3 338.12 251.74 341.68 247.19" style="fill:#fff;opacity:0.4"></polygon><polygon points="297.12 262.84 319.78 281.2 330.01 264.82 332.02 266.36 320.3 285.28 299.11 267.59 297.12 262.84" style="fill:#fff;opacity:0.4"></polygon><polyline points="330.01 264.82 319.78 281.2 296.24 261.75 318.56 229.21 341.69 246.4 338.12 251.99" style="fill:#fff;stroke:#263238;stroke-linecap:round;stroke-linejoin:round;stroke-width:0.9441796219369523px"></polyline><polyline points="339.14 254.53 341.81 250.17 341.69 246.4" style="fill:none;stroke:#263238;stroke-linecap:round;stroke-linejoin:round;stroke-width:0.9441796219369523px"></polyline><polyline points="331.81 266.56 320.3 285.28 299.44 267.66 296.24 261.75" style="fill:none;stroke:#263238;stroke-linecap:round;stroke-linejoin:round;stroke-width:0.9441796219369523px"></polyline><line x1="318.87" y1="233.9" x2="337.51" y2="247.54" style="fill:none;stroke:#263238;stroke-linecap:round;stroke-linejoin:round;stroke-width:0.9441796219369523px"></line><line x1="317.52" y1="235.79" x2="336.16" y2="249.43" style="fill:none;stroke:#263238;stroke-linecap:round;stroke-linejoin:round;stroke-width:0.9441796219369523px"></line><line x1="315.77" y1="237.96" x2="330.62" y2="248.87" style="fill:none;stroke:#263238;stroke-linecap:round;stroke-linejoin:round;stroke-width:0.9441796219369523px"></line><line x1="314.41" y1="239.98" x2="334.5" y2="254.65" style="fill:none;stroke:#263238;stroke-linecap:round;stroke-linejoin:round;stroke-width:0.9441796219369523px"></line><line x1="312.66" y1="242.55" x2="326.17" y2="252.49" style="fill:none;stroke:#263238;stroke-linecap:round;stroke-linejoin:round;stroke-width:0.9441796219369523px"></line><line x1="311.04" y1="244.98" x2="325.06" y2="255.39" style="fill:none;stroke:#263238;stroke-linecap:round;stroke-linejoin:round;stroke-width:0.9441796219369523px"></line><line x1="309.69" y1="247.41" x2="325.06" y2="258.64" style="fill:none;stroke:#263238;stroke-linecap:round;stroke-linejoin:round;stroke-width:0.9441796219369523px"></line><line x1="308.34" y1="249.84" x2="326.97" y2="263.48" style="fill:none;stroke:#263238;stroke-linecap:round;stroke-linejoin:round;stroke-width:0.9441796219369523px"></line><line x1="306.99" y1="252.27" x2="325.62" y2="265.91" style="fill:none;stroke:#263238;stroke-linecap:round;stroke-linejoin:round;stroke-width:0.9441796219369523px"></line><line x1="305.64" y1="254.7" x2="324.27" y2="268.34" style="fill:none;stroke:#263238;stroke-linecap:round;stroke-linejoin:round;stroke-width:0.9441796219369523px"></line><path d="M204.63,221.05s7.41,3.44,10.05,2.69,5.48-6.57,5.48-6.57L206.08,189.7s4.21-8.28,3.69-11.24-5.29-7.58-5.29-7.58l-.9.89s-7.11-12.58-8.48-11.89,2.81,8.91,2.81,8.91a2.47,2.47,0,0,0-2,2.33s-6.92,6.29-6.77,9.28,7.61,12.26,7.61,12.26Z" style="fill:#fff"></path><path d="M193.62,181l2.54-3.17s4.64,4,5.49,3.17-4.65-9.92-5.7-9.92-6.76,7.39-6.55,9.71,7.39,11.83,7.39,11.83l7.82,28.51s5.7,2.74,9.08,2.53,6.71-7.17,6.71-7.17L206.08,189.7s4.4-8.83,3.69-11.24-4.82-6-5.1-8.22a4.5,4.5,0,0,0-.29,5.1" style="fill:none;stroke:#263238;stroke-linecap:round;stroke-linejoin:round;stroke-width:0.9441796219369523px"></path><path d="M194.81,172s1.17-3.21,2.63-2.92,5,6.14,5,7.6a8.8,8.8,0,0,1-.73,3.08" style="fill:none;stroke:#263238;stroke-linecap:round;stroke-linejoin:round;stroke-width:0.9441796219369523px"></path><path d="M203.78,172.6s-6.63-13.74-8.68-12.72,3.2,8.68,4.37,11" style="fill:none;stroke:#263238;stroke-linecap:round;stroke-linejoin:round;stroke-width:0.9441796219369523px"></path><path d="M204.58,175.64a2.08,2.08,0,0,0-1,.94,9.17,9.17,0,0,0-1.16,6.31" style="fill:none;stroke:#263238;stroke-linecap:round;stroke-linejoin:round;stroke-width:0.9441796219369523px"></path><path d="M338.52,257.58s1.57-3.32-.59-5.32-8-8.48-9.09-7.71,7.09,11.4,7.09,11.4" style="fill:#fff"></path><path d="M336,256.24c-3.91-2.81-10.11-6.59-10.86-5.83-1.08,1.08,7.55,7.85,7.55,7.85s-7.71-6.16-8.79-4.93c-.66.76,3.25,4,6.34,6.67" style="fill:#fff"></path><path d="M329.72,259.57c-2.59-2.39-5.28-4.61-5.81-4.08-1.07,1.08,7.08,11,9,11.35,2.14.37,2.2-2.35,2.2-2.35h0a3.52,3.52,0,0,0,2.41-2.94l0-.35a3,3,0,0,0,.55-4.53l-1.36-.92s-1.35,1.28-2.14.78" style="fill:#fff"></path><path d="M338.52,257.58s1.57-3.32-.59-5.32-8-8.48-9.09-7.71,7.09,11.4,7.09,11.4" style="fill:none;stroke:#263238;stroke-linecap:round;stroke-linejoin:round;stroke-width:0.9441796219369523px"></path><path d="M336,256.24c-3.91-2.81-10.11-6.59-10.86-5.83-1.08,1.08,7.55,7.85,7.55,7.85s-7.71-6.16-8.79-4.93c-.66.76,3.25,4,6.34,6.67" style="fill:none;stroke:#263238;stroke-linecap:round;stroke-linejoin:round;stroke-width:0.9441796219369523px"></path><path d="M329.72,259.57c-2.59-2.39-5.28-4.61-5.81-4.08-1.07,1.08,7.08,11,9,11.35,2.14.37,2.2-2.35,2.2-2.35h0a3.52,3.52,0,0,0,2.41-2.94l0-.35s2.8-1,1-3.42" style="fill:none;stroke:#263238;stroke-linecap:round;stroke-linejoin:round;stroke-width:0.9441796219369523px"></path></g></g><g id="freepik--Graphics--inject-61"><g id="freepik--graphics--inject-61"><path d="M190,271.23V232.66a2.52,2.52,0,0,0-2.52-2.52H181.9" style="fill:none;stroke:#263238;stroke-linecap:round;stroke-linejoin:round;stroke-width:0.9441796219369523px;stroke-dasharray:1.8883591890335083,1.8883591890335083"></path><rect x="117.5" y="207.57" width="64.27" height="47.16" rx="3" style="fill:#fff;stroke:#263238;stroke-linecap:round;stroke-linejoin:round;stroke-width:0.9441796219369523px"></rect><rect x="123.78" y="212.9" width="16.92" height="12.55" rx="3" style="fill:#fff;stroke:#263238;stroke-linecap:round;stroke-linejoin:round;stroke-width:0.9441796219369523px"></rect><rect x="123.63" y="232.88" width="51.51" height="3.5" style="fill:#263238"></rect><rect x="145.29" y="221.92" width="29.84" height="3.5" style="fill:#263238"></rect><rect x="145.29" y="212.59" width="29.84" height="3.5" style="fill:#263238"></rect><rect x="123.92" y="243.17" width="51.36" height="3.45" style="fill:#263238"></rect><circle cx="189.9" cy="271.8" r="2.6" style="fill:#fff;stroke:#263238;stroke-miterlimit:10;stroke-width:0.9441796219369523px"></circle><rect x="344.86" y="123.91" width="66.06" height="42.12" rx="3" style="fill:#263238"></rect><line x1="309.53" y1="199.98" x2="310.47" y2="199.98" style="fill:none;stroke:#263238;stroke-linecap:round;stroke-linejoin:round;stroke-width:0.9441796219369523px"></line><path d="M312.39,200h6.85a3.37,3.37,0,0,0,3.36-3.36V138.73a3.36,3.36,0,0,1,3.36-3.37h12.12" style="fill:none;stroke:#263238;stroke-linecap:round;stroke-linejoin:round;stroke-width:0.9441796219369523px;stroke-dasharray:1.9209266901016235,1.9209266901016235"></path><line x1="339.04" y1="135.36" x2="339.98" y2="135.36" style="fill:none;stroke:#263238;stroke-linecap:round;stroke-linejoin:round;stroke-width:0.9441796219369523px"></line><rect x="341.43" y="112.14" width="64.27" height="47.16" rx="3" style="fill:#fff;stroke:#263238;stroke-linecap:round;stroke-linejoin:round;stroke-width:0.9441796219369523px"></rect><rect x="348.66" y="117.46" width="51.34" height="12.55" rx="3" style="fill:none;stroke:#263238;stroke-linecap:round;stroke-linejoin:round;stroke-width:0.9441796219369523px"></rect><rect x="350.53" y="137.56" width="49.26" height="3.39" style="fill:#263238"></rect><rect x="350.53" y="144.34" width="49.26" height="3.39" style="fill:#263238"></rect><circle cx="311.74" cy="199.98" r="2.6" style="fill:#fff;stroke:#263238;stroke-miterlimit:10;stroke-width:0.9441796219369523px"></circle><circle cx="342.13" cy="135.14" r="2.6" style="fill:#fff;stroke:#263238;stroke-miterlimit:10;stroke-width:0.9441796219369523px"></circle></g></g></svg>